<?xml version="1.0" encoding="iso-8859-1"?>
<!-- Generator: Adobe Illustrator 19.0.0, SVG Export Plug-In . SVG Version: 6.00 Build 0)  -->
<svg version="1.1" id="Capa_1" xmlns="http://www.w3.org/2000/svg" xmlns:xlink="http://www.w3.org/1999/xlink" x="0px" y="0px"
	 viewBox="0 0 489.609 489.609" style="enable-background:new 0 0 489.609 489.609;" xml:space="preserve">
<g>
	<g>
		<g>
			<g>
				<path d="M141.2,181.83L141.2,181.83c-6.6,6.6-17.5,6.6-24.1,0l-93.8-93.8c-6.6-6.6-6.6-17.5,0-24.1l0,0c6.6-6.6,17.5-6.6,24.1,0
					l93.7,93.7C147.8,164.33,147.8,175.13,141.2,181.83z"/>
			</g>
			<g>
				<path d="M348.8,181.83L348.8,181.83c6.6,6.6,17.5,6.6,24.1,0l93.7-93.7c6.6-6.6,6.6-17.5,0-24.1l0,0c-6.6-6.6-17.5-6.6-24.1,0
					l-93.7,93.6C342.2,164.33,342.2,175.13,348.8,181.83z"/>
			</g>
			<path d="M461.6,151.83h-30.7l-44,44c-21.5,19.7-44.2,8.4-52.1,0c-12.1-12.1-14-29.9-6.2-43.9H161.4c7.8,14,5.8,32.3-6.2,43.9
				c-22.9,20.9-45.1,7-52.1,0l-44-44H28.4c-15.6,0-28.4,12.8-28.4,28.4s12.8,28.4,28.4,28.4h432.8c15.6,0,28.4-12.8,28.4-28.4
				C490,164.63,477.1,151.83,461.6,151.83z"/>
			<path d="M43.6,228.43l53.7,190.5c1.9,7,8.2,11.7,15.6,11.7h276.9c7,0,13.6-4.7,15.6-11.7l53.5-190.1H43.6V228.43z M169.9,379.33
				c0,5.4-4.3,9.7-9.7,9.7s-9.7-4.3-9.7-9.7v-119.4c0-5.4,4.3-9.7,9.7-9.7s9.7,4.3,9.7,9.7V379.33z M230.6,379.33
				c0,5.4-4.3,9.7-9.7,9.7s-9.7-4.3-9.7-9.7v-119.4c0-5.4,4.3-9.7,9.7-9.7s9.7,4.3,9.7,9.7V379.33z M291.3,379.33
				c0,5.4-4.3,9.7-9.7,9.7s-9.7-4.3-9.7-9.7v-119.4c0-5.4,4.3-9.7,9.7-9.7s9.7,4.3,9.7,9.7V379.33z M351.5,379.33
				c0,5.4-4.3,9.7-9.7,9.7c-5.4,0-9.7-4.3-9.7-9.7v-119.4c0-5.4,4.3-9.7,9.7-9.7c5.4,0,9.7,4.3,9.7,9.7V379.33z"/>
		</g>
	</g>
</g>
<g>
</g>
<g>
</g>
<g>
</g>
<g>
</g>
<g>
</g>
<g>
</g>
<g>
</g>
<g>
</g>
<g>
</g>
<g>
</g>
<g>
</g>
<g>
</g>
<g>
</g>
<g>
</g>
<g>
</g>
</svg>
